HIERARCHY
ROOT Hips
{
	OFFSET 0.00000 0.00000 0.00000
	CHANNELS 6 Xposition Yposition Zposition Zrotation Yrotation Xrotation 
	JOINT LHipJoint
	{
		OFFSET 0 0 0
		CHANNELS 3 Zrotation Yrotation Xrotation
		JOINT LeftUpLeg
		{
			OFFSET 1.85590 -1.73949 0.84976
			CHANNELS 3 Zrotation Yrotation Xrotation
			JOINT LeftLeg
			{
				OFFSET 2.36836 -6.50702 0.00000
				CHANNELS 3 Zrotation Yrotation Xrotation
				JOINT LeftFoot
				{
					OFFSET 2.53268 -6.95849 0.00000
					CHANNELS 3 Zrotation Yrotation Xrotation
					JOINT LeftToeBase
					{
						OFFSET 0.15935 -0.43781 1.94506
						CHANNELS 3 Zrotation Yrotation Xrotation
						End Site
						{
							OFFSET 0.00000 -0.00000 1.00661
						}
					}
				}
			}
		}
	}
	JOINT RHipJoint
	{
		OFFSET 0 0 0
		CHANNELS 3 Zrotation Yrotation Xrotation
		JOINT RightUpLeg
		{
			OFFSET -1.68297 -1.73949 0.84976
			CHANNELS 3 Zrotation Yrotation Xrotation
			JOINT RightLeg
			{
				OFFSET -2.44709 -6.72334 0.00000
				CHANNELS 3 Zrotation Yrotation Xrotation
				JOINT RightFoot
				{
					OFFSET -2.43843 -6.69953 0.00000
					CHANNELS 3 Zrotation Yrotation Xrotation
					JOINT RightToeBase
					{
						OFFSET -0.20854 -0.57295 2.02172
						CHANNELS 3 Zrotation Yrotation Xrotation
						End Site
						{
							OFFSET -0.00000 -0.00000 1.05594
						}
					}
				}
			}
		}
	}
	JOINT LowerBack
	{
		OFFSET 0 0 0
		CHANNELS 3 Zrotation Yrotation Xrotation
		JOINT Spine
		{
			OFFSET -0.01560 2.23971 -0.03712
			CHANNELS 3 Zrotation Yrotation Xrotation
			JOINT Spine1
			{
				OFFSET 0.05490 2.19225 -0.19086
				CHANNELS 3 Zrotation Yrotation Xrotation
				JOINT Neck
				{
					OFFSET 0 0 0
					CHANNELS 3 Zrotation Yrotation Xrotation
					JOINT Neck1
					{
						OFFSET -0.12403 1.43168 0.27585
						CHANNELS 3 Zrotation Yrotation Xrotation
						JOINT Head
						{
							OFFSET 0.17855 1.46173 -0.32578
							CHANNELS 3 Zrotation Yrotation Xrotation
							End Site
							{
								OFFSET 0.07217 1.51590 -0.14537
							}
						}
					}
				}
				JOINT LeftShoulder
				{
					OFFSET 0 0 0
					CHANNELS 3 Zrotation Yrotation Xrotation
					JOINT LeftArm
					{
						OFFSET 3.27650 0.85634 0.05396
						CHANNELS 3 Zrotation Yrotation Xrotation
						JOINT LeftForeArm
						{
							OFFSET 4.96755 -0.00000 0.00000
							CHANNELS 3 Zrotation Yrotation Xrotation
							JOINT LeftHand
							{
								OFFSET 3.35751 -0.00000 0.00000
								CHANNELS 3 Zrotation Yrotation Xrotation
								JOINT LeftFingerBase
								{
									OFFSET 0 0 0
									CHANNELS 3 Zrotation Yrotation Xrotation
									JOINT LeftHandIndex1
									{
										OFFSET 0.79697 -0.00000 0.00000
										CHANNELS 3 Zrotation Yrotation Xrotation
										End Site
										{
											OFFSET 0.64254 -0.00000 0.00000
										}
									}
								}
								JOINT LThumb
								{
									OFFSET 0 0 0
									CHANNELS 3 Zrotation Yrotation Xrotation
									End Site
									{
										OFFSET 0.65235 -0.00000 0.65235
									}
								}
							}
						}
					}
				}
				JOINT RightShoulder
				{
					OFFSET 0 0 0
					CHANNELS 3 Zrotation Yrotation Xrotation
					JOINT RightArm
					{
						OFFSET -3.24434 1.02034 0.34688
						CHANNELS 3 Zrotation Yrotation Xrotation
						JOINT RightForeArm
						{
							OFFSET -5.21859 -0.00000 -0.00000
							CHANNELS 3 Zrotation Yrotation Xrotation
							JOINT RightHand
							{
								OFFSET -3.36504 -0.00000 0.00000
								CHANNELS 3 Zrotation Yrotation Xrotation
								JOINT RightFingerBase
								{
									OFFSET 0 0 0
									CHANNELS 3 Zrotation Yrotation Xrotation
									JOINT RightHandIndex1
									{
										OFFSET -0.62044 -0.00000 0.00000
										CHANNELS 3 Zrotation Yrotation Xrotation
										End Site
										{
											OFFSET -0.50022 -0.00000 0.00000
										}
									}
								}
								JOINT RThumb
								{
									OFFSET 0 0 0
									CHANNELS 3 Zrotation Yrotation Xrotation
									End Site
									{
										OFFSET -0.50786 -0.00000 0.50786
									}
								}
							}
						}
					}
				}
			}
		}
	}
}
MOTION
Frames: 9
Frame Time: .0083333
9.014000 16.614300 -1.875400 -5.640800 -2.368500 7.108300 0.000000 0.000000 0.000000 -5.512200 -11.943400 -39.369600 1.020400 6.426300 18.026400 0.067900 8.681400 -13.579400 0.639800 -5.117400 -14.243700 0.000000 0.000000 0.000000 30.580400 0.138400 11.946100 -0.023800 -0.996500 2.739100 -0.729900 4.392300 -15.254800 -0.828100 5.805800 -16.221900 1.339400 1.425800 -6.402800 3.045600 1.691100 -0.045600 2.554200 0.839100 3.491000 -13.570000 -6.298400 -20.521300 14.953900 -8.285400 20.354200 6.471500 -3.128400 11.249000 -0.000000 -0.000000 0.000000 -88.226500 16.986400 26.693000 11.148600 -18.515700 -1.822800 -0.000000 -0.000000 2.857300 10.097300 -23.342800 -4.036100 -7.125000 0.000000 -0.000000 -11.801300 6.721600 10.571200 -0.000000 -0.000000 0.000000 75.992600 -5.968900 44.510400 -32.831300 43.200000 -13.306500 0.000000 -0.000000 -27.343900 -34.819000 -25.682200 16.773800 7.125000 -0.000000 -0.000000 -6.064800 -60.237900 2.259200
9.048600 16.600800 -1.709800 -5.671900 -2.597100 7.106700 0.000000 0.000000 0.000000 -5.836900 -11.591400 -39.409300 1.040800 6.488300 18.208000 0.115000 7.887200 -13.374300 0.656500 -5.182400 -14.429500 0.000000 0.000000 0.000000 30.259600 -0.445900 13.956600 0.000000 0.000000 -0.000000 -0.600800 4.118400 -13.822300 -0.812000 5.750500 -16.062300 1.465300 1.498000 -6.567700 2.989100 1.774000 -0.039500 2.438200 0.882500 3.592800 -13.379000 -6.269300 -20.569600 14.875800 -8.285200 20.397700 6.409100 -3.119400 11.261100 0.000000 -0.000000 0.000000 -88.284300 17.037900 27.147800 11.201600 -18.596600 -1.839700 -0.000000 -0.000000 1.769400 10.155900 -23.097400 -4.019800 -7.125000 0.000000 -0.000000 -11.759600 6.957600 10.477200 0.000000 -0.000000 0.000000 76.319100 -6.090800 44.555600 -32.633300 43.046300 -13.171100 0.000000 -0.000000 -27.073700 -33.939000 -23.776000 15.179700 7.125000 -0.000000 -0.000000 -5.345500 -57.869300 1.686900
9.075900 16.588100 -1.553000 -5.822700 -2.628400 7.137300 0.000000 0.000000 0.000000 -5.923900 -11.463200 -39.570800 1.071300 6.579600 18.475600 0.199900 7.085000 -13.835800 0.446000 -4.284800 -11.879300 0.000000 0.000000 0.000000 30.208500 -0.691400 14.480100 0.000000 -0.000000 0.000000 -0.583400 4.384700 -13.605200 -0.808000 5.736600 -16.022100 1.653800 1.599900 -6.665400 3.046000 1.891400 -0.092900 2.404800 0.943700 3.593100 -13.414500 -6.346100 -20.545600 14.609000 -8.335400 20.575300 6.309100 -3.174800 11.317100 -0.000000 0.000000 0.000000 -88.356400 16.881800 27.488800 11.105100 -18.449100 -1.809000 -0.000000 -0.000000 1.747400 9.515600 -23.026700 -3.751300 -7.125000 0.000000 -0.000000 -12.154100 7.093300 10.812700 -0.000000 0.000000 0.000000 76.392300 -6.460700 44.496400 -32.904200 43.256300 -13.356400 0.000000 -0.000000 -27.056100 -34.978900 -24.849300 16.384400 7.125000 -0.000000 -0.000000 -6.408500 -59.340900 2.250500
9.105300 16.575000 -1.393500 -5.809500 -2.705400 7.172900 0.000000 0.000000 0.000000 -6.450800 -10.937600 -39.790000 1.108900 6.690400 18.801300 0.190900 6.496400 -13.075400 0.627500 -5.068900 -14.105200 0.000000 0.000000 0.000000 29.983800 -0.908700 15.011800 0.000000 0.000000 -0.000000 -0.562300 4.452000 -13.350900 -0.801900 5.715400 -15.960800 1.653400 1.662900 -6.763900 3.070700 1.972700 -0.147100 2.440700 0.984000 3.589000 -13.565000 -6.404300 -20.474500 14.563700 -8.386200 20.748100 6.316600 -3.217200 11.380700 0.000000 0.000000 0.000000 -88.455200 16.796400 27.728300 11.103800 -18.447200 -1.808600 -0.000000 -0.000000 1.885800 8.659500 -22.591100 -3.348300 -7.125000 0.000000 -0.000000 -12.678200 7.605500 11.173000 0.000000 0.000000 0.000000 76.477700 -6.788800 44.446300 -33.061400 43.377200 -13.464200 0.000000 -0.000000 -26.906900 -35.886400 -25.817900 17.489700 7.125000 -0.000000 -0.000000 -7.376400 -60.673200 2.827100
9.141300 16.571400 -1.227800 -5.504300 -2.924600 7.299700 0.000000 0.000000 0.000000 -7.404400 -10.375200 -39.893700 1.153300 6.818600 19.179000 0.218800 5.903300 -12.938200 0.676000 -5.257300 -14.643800 0.000000 0.000000 0.000000 29.392800 -0.953600 15.457000 0.000000 0.000000 -0.000000 -0.536000 4.552200 -13.030300 -0.888500 6.008300 -16.808500 1.346900 1.670700 -6.911200 2.985900 2.010700 -0.312700 2.529400 0.999100 3.491100 -13.676600 -6.288800 -20.075600 14.808400 -8.291700 20.663900 6.447200 -3.172300 11.274700 -0.000000 -0.000000 0.000000 -88.570800 17.120700 28.330600 11.227900 -18.636700 -1.848100 -0.000000 -0.000000 0.391800 8.831600 -22.801000 -3.445700 -7.125000 0.000000 -0.000000 -12.573900 7.383000 11.132400 -0.000000 -0.000000 0.000000 76.623800 -7.226200 44.622500 -33.029400 43.352600 -13.442300 0.000000 -0.000000 -26.793700 -35.997800 -25.628600 17.444300 7.125000 -0.000000 -0.000000 -7.546600 -60.488700 2.859600
9.170900 16.564300 -1.068900 -5.564200 -3.049500 7.501400 0.000000 0.000000 0.000000 -7.602100 -10.329300 -40.050300 1.223000 7.014400 19.757900 0.254400 5.852800 -13.456100 0.630900 -5.082400 -14.143800 0.000000 0.000000 0.000000 29.233400 -1.017600 15.816800 0.000000 0.000000 -0.000000 -0.514400 4.660600 -12.763100 -1.066300 6.564900 -18.432600 1.294700 1.662800 -7.123500 3.048700 1.999100 -0.442500 2.627300 0.992400 3.471900 -13.548400 -6.165000 -19.903500 14.764100 -8.157000 20.592600 6.427900 -3.112800 11.183100 -0.000000 0.000000 0.000000 -88.750900 17.224800 27.632800 11.383500 -18.873700 -1.898100 -0.000000 -0.000000 2.172900 7.501500 -22.746000 -2.914600 -7.125000 0.000000 -0.000000 -13.395400 7.561500 11.853400 -0.000000 0.000000 0.000000 76.623800 -7.535900 44.804700 -32.944800 43.287600 -13.384200 0.000000 -0.000000 -26.601800 -35.529000 -25.956400 17.355800 7.125000 -0.000000 -0.000000 -6.902200 -60.734100 2.654300
9.203300 16.554400 -0.906900 -5.865700 -3.190500 7.611000 0.000000 0.000000 0.000000 -7.542600 -10.189000 -40.147800 1.309300 7.248300 20.453000 0.242100 5.961000 -13.366000 0.739300 -5.492900 -15.319900 0.000000 0.000000 0.000000 29.314600 -1.107400 16.337000 0.000000 0.000000 -0.000000 -0.493600 4.665200 -12.501300 -1.149600 6.807900 -19.147500 1.604300 1.721300 -7.266400 3.113700 2.046200 -0.499500 2.529600 1.019900 3.499800 -13.206300 -6.174200 -20.227000 14.449600 -8.194200 20.914500 6.251200 -3.122600 11.338500 -0.000000 0.000000 0.000000 -88.805700 17.246000 27.740400 11.479700 -19.019700 -1.929300 -0.000000 -0.000000 2.509900 8.142000 -23.184200 -3.223700 -7.125000 0.000000 -0.000000 -13.003500 7.073800 11.614100 -0.000000 0.000000 0.000000 76.695200 -7.874300 44.894000 -32.906900 43.258300 -13.358200 0.000000 -0.000000 -26.422300 -34.379800 -25.225200 16.256100 7.125000 -0.000000 -0.000000 -5.612000 -59.610700 2.005900
9.248000 16.544100 -0.726600 -5.933500 -3.466800 7.699500 0.000000 0.000000 0.000000 -8.006200 -9.722900 -40.041900 1.393300 7.467800 21.109000 0.207600 5.585300 -12.446200 1.007600 -6.387200 -17.912000 0.000000 0.000000 0.000000 29.051400 -1.096300 16.930500 0.000000 -0.000000 0.000000 -0.464400 4.601900 -12.124900 -1.259700 7.114800 -20.055900 1.757800 1.777300 -7.462200 3.145500 2.102700 -0.605600 2.486900 1.050000 3.502100 -13.097000 -6.159400 -20.451000 14.271200 -8.182600 21.340800 6.182300 -3.118000 11.524600 0.000000 -0.000000 0.000000 -88.996900 17.389700 27.802000 11.544200 -19.117500 -1.950400 -0.000000 -0.000000 2.513600 8.667300 -23.630800 -3.496600 -7.125000 0.000000 -0.000000 -12.686300 6.585300 11.438700 0.000000 -0.000000 0.000000 76.594400 -8.421500 45.298300 -33.002500 43.332000 -13.423800 0.000000 -0.000000 -26.725700 -34.225900 -24.072800 15.508100 7.125000 -0.000000 -0.000000 -5.633600 -58.274500 1.833200
9.291500 16.527600 -0.534700 -5.939500 -3.724700 7.805700 0.000000 0.000000 0.000000 -8.402300 -9.467200 -39.833200 1.479300 7.684900 21.761000 0.166000 5.234300 -11.370300 0.952000 -6.213400 -17.404900 0.000000 0.000000 0.000000 28.720800 -1.108200 17.533000 0.000000 -0.000000 0.000000 -0.441500 4.710600 -11.826800 -1.405100 7.498000 -21.199300 1.735900 1.760300 -7.857600 3.265800 2.064100 -0.674800 2.634000 1.029100 3.647500 -13.228300 -6.099100 -20.482900 14.238200 -8.073500 21.637600 6.225200 -3.081600 11.628300 -0.000000 -0.000000 0.000000 -89.373700 17.505800 27.942900 11.604800 -19.209400 -1.970300 -0.000000 -0.000000 2.032500 8.355100 -23.338100 -3.329800 -7.125000 0.000000 -0.000000 -12.874100 6.902700 11.536000 -0.000000 -0.000000 0.000000 76.354700 -8.787800 45.721900 -33.028900 43.352200 -13.441900 0.000000 -0.000000 -26.896700 -35.053300 -25.163800 16.611100 7.125000 -0.000000 -0.000000 -6.446800 -59.715200 2.321800
